<svg width="30" height="31" viewBox="0 0 30 31" fill="none" xmlns="http://www.w3.org/2000/svg">
<path d="M25 22.3711C25.4815 22.3713 25.9445 22.5568 26.293 22.8891C26.6415 23.2214 26.8488 23.675 26.8719 24.156C26.895 24.637 26.7323 25.1084 26.4173 25.4726C26.1023 25.8368 25.6593 26.0659 25.18 26.1123L25 26.1211H5C4.51848 26.1209 4.05551 25.9354 3.70702 25.6031C3.35853 25.2708 3.15123 24.8172 3.12809 24.3362C3.10495 23.8552 3.26774 23.3838 3.58272 23.0196C3.8977 22.6554 4.34073 22.4263 4.82 22.3798L5 22.3711H25ZM25 13.6211C25.4973 13.6211 25.9742 13.8186 26.3258 14.1703C26.6775 14.5219 26.875 14.9988 26.875 15.4961C26.875 15.9934 26.6775 16.4703 26.3258 16.8219C25.9742 17.1735 25.4973 17.3711 25 17.3711H5C4.50272 17.3711 4.02581 17.1735 3.67417 16.8219C3.32254 16.4703 3.125 15.9934 3.125 15.4961C3.125 14.9988 3.32254 14.5219 3.67417 14.1703C4.02581 13.8186 4.50272 13.6211 5 13.6211H25ZM25 4.87109C25.4973 4.87109 25.9742 5.06864 26.3258 5.42027C26.6775 5.7719 26.875 6.24881 26.875 6.74609C26.875 7.24337 26.6775 7.72029 26.3258 8.07192C25.9742 8.42355 25.4973 8.62109 25 8.62109H5C4.50272 8.62109 4.02581 8.42355 3.67417 8.07192C3.32254 7.72029 3.125 7.24337 3.125 6.74609C3.125 6.24881 3.32254 5.7719 3.67417 5.42027C4.02581 5.06864 4.50272 4.87109 5 4.87109H25Z" fill="white"/>
</svg>
